<svg width="314" height="48" viewBox="0 0 314 48" fill="none" xmlns="http://www.w3.org/2000/svg">
<g clip-path="url(#clip0_1083_628)" filter="url(#filter0_d_1083_628)">
<path fill-rule="evenodd" clip-rule="evenodd" d="M36.2114 21.7779C36.8964 21.5483 36.684 20.3945 36.6821 19.5029C36.6764 17.157 36.4123 14.2927 37.899 12.5113C40.1664 9.79427 42.6462 10.3185 46.7619 10.3185V14.6543C45.2101 14.6543 41.7794 14.153 41.1977 15.3546C40.8571 16.0569 40.9049 20.9073 41.1614 21.5483C41.9306 22.2371 45.4264 21.8831 46.6375 21.8831L46.0884 26.2036C39.9598 26.416 41.0179 24.4318 41.0179 34.1231C41.0179 35.365 40.7672 41.1224 41.2417 41.7098C41.4982 41.9891 41.3585 41.9528 41.8464 42.0331C42.1238 42.079 44.2094 42.1422 44.5807 41.8743C45.013 41.5625 44.9806 40.8812 44.4849 40.6287C43.9913 40.3761 43.1187 40.5196 42.5409 40.5196L42.5428 27.74L47.1082 27.721C47.7549 26.9651 47.9329 23.7181 48.1587 22.1568C48.3003 21.1656 48.5031 20.7007 47.6918 20.4691L47.334 20.2701L42.6424 20.295L42.715 16.1889C44.0736 16.1238 47.0967 16.363 48.0841 15.9937C48.4189 15.1748 48.415 9.82489 48.0974 8.97916C47.1982 8.6424 43.402 8.74572 42.141 8.80312C38.7849 8.9562 36.1005 11.2274 35.3542 14.3807C34.8969 16.3113 35.4097 18.5136 35.094 20.3601C34.0129 20.3601 31.4815 20.1457 30.6836 20.515C30.3334 20.8078 30.4788 20.4328 30.3545 21.0757C30.3124 21.2938 30.3334 21.8372 30.3353 22.084C30.3411 22.7461 30.3392 23.4081 30.3392 24.0701C30.3392 24.7322 30.3411 25.3942 30.3353 26.0563C30.3334 26.2706 30.3163 26.7431 30.343 26.9326C30.4406 27.6004 30.3985 27.3401 30.7506 27.5851C31.3552 27.9371 34.2024 27.74 35.1399 27.74L35.1571 40.5196C32.8802 40.5196 17.6591 40.7416 16.8631 40.3531C16.2795 39.8978 16.5589 32.799 16.5589 31.6854C16.5589 27.9869 16.3771 5.32266 16.7234 4.87874C17.5577 4.17652 20.0183 5.14662 19.5476 3.57763C19.2568 2.60563 16.5819 3.07632 16.0499 3.45326C14.9535 4.2301 15.0339 5.27482 15.0358 6.85911V37.4735C15.0358 38.8608 14.7775 40.3628 15.6481 41.2773C16.6278 42.3068 17.6878 42.0427 19.2989 42.0427H32.398C33.4236 42.0427 35.8326 42.3221 36.5137 41.7385C36.8658 41.063 36.8543 27.1622 36.5023 26.5078C35.7349 25.9166 33.0562 26.2189 31.9427 26.2189V21.9903H35.7101C36.397 21.8985 36.066 21.8889 36.2076 21.7779H36.2114ZM46.8614 40.6268C45.9066 41.1205 46.6451 42.3756 47.5253 41.9451C48.3634 41.5356 47.7684 40.158 46.8614 40.6268ZM21.5777 3.1586C20.6229 3.65226 21.3615 4.90745 22.2417 4.47693C23.0798 4.06747 22.4847 2.68982 21.5777 3.1586ZM52.1998 4.74098C52.7967 5.45276 52.504 12.0884 52.504 13.4087C52.504 17.1092 52.6877 39.7676 52.3375 40.2154C51.4631 40.9463 50.1333 40.0949 49.6109 40.841C48.7499 42.0714 50.7054 42.0676 51.444 42.0485C54.05 41.9738 54.0289 40.2881 54.027 37.9308C54.0251 34.6378 54.249 5.41067 53.851 4.44058C53.0933 2.58841 50.428 3.05145 48.3902 3.05145L24.9377 3.06293C23.937 3.21409 23.694 4.54964 25.3797 4.58409C28.6095 4.64913 51.2737 4.2875 52.1979 4.74098H52.1998Z" fill="#ABC2B3"/>
</g>
<g clip-path="url(#clip1_1083_628)" filter="url(#filter1_d_1083_628)">
<path fill-rule="evenodd" clip-rule="evenodd" d="M83.3773 4.13877C84.0871 4.87026 85.5236 4.58916 87.305 4.58916C91.3833 4.58916 96.4695 4.08908 99.3427 5.67008C101.003 6.58327 102.603 8.28696 103.283 10.5839C103.912 12.7023 103.629 24.7166 103.629 27.7777C103.629 30.4986 103.934 33.4044 102.857 35.6967C100.201 41.3498 95.0531 40.5919 90.2045 40.5919C86.7381 40.5919 75.6354 41.0174 73.1599 40.0933C67.1263 37.8399 67.6264 32.4819 67.6264 28.0836C67.6264 25.1344 67.6264 22.1852 67.6264 19.2359C67.6264 14.1218 66.6604 8.69852 71.7171 5.7819C75.3031 3.71324 78.3098 5.23057 78.7353 4.13877C79.3612 2.53292 75.2456 3.06407 74.4815 3.18676C73.1412 3.40263 71.9966 3.83748 70.9825 4.44007C69.094 5.56136 67.5627 7.20138 66.6526 9.72197C65.6524 12.4911 66.0997 24.4184 66.0997 28.2374C66.0997 31.3683 65.8372 34.1809 67.1977 36.7543C70.369 42.7537 75.7379 42.1201 81.0493 42.1201C84.202 42.1201 87.3547 42.1201 90.5074 42.1201C93.6632 42.1201 96.5161 42.4322 99.2681 41.2659C101.371 40.3744 103.202 38.5356 104.155 36.5524C105.457 33.847 105.153 31.1354 105.153 27.933C105.153 24.7803 105.153 21.6276 105.153 18.4749C105.153 15.594 105.476 12.0422 104.514 9.50455C103.589 7.0585 102.061 5.48526 100.077 4.32825C97.0457 2.56088 91.2668 3.06717 86.9975 3.06717C84.3247 3.06717 83.309 2.68978 83.3742 4.14188L83.3773 4.13877ZM80.7372 3.17123C79.7774 3.66665 80.5244 4.92306 81.4034 4.49287C82.239 4.08442 81.6457 2.70221 80.7372 3.17123ZM89.8908 37.6488C88.931 38.1443 89.678 39.4007 90.5571 38.9705C91.3926 38.562 90.7993 37.1798 89.8908 37.6488ZM94.7208 11.6198C96.572 10.7858 97.4728 13.6434 95.8607 14.364C94.6245 14.9154 93.278 13.6714 93.8542 12.3575C94.1757 11.6229 94.6416 11.6555 94.7208 11.6198ZM94.6043 10.0108C93.1398 10.3587 91.8275 11.786 92.2639 13.6683C93.1646 17.5524 99.1175 16.2106 98.2074 12.2954C97.8828 10.8945 96.3561 9.59462 94.6028 10.0108H94.6043ZM84.7906 18.9145C89.6936 17.7435 91.2792 25.1096 86.5797 26.2821C81.7311 27.4919 79.709 20.1274 84.7906 18.9145ZM84.6244 17.3785C77.3935 18.9704 80.0538 29.2981 86.735 27.8072C93.6865 26.2557 91.2668 15.9155 84.6244 17.3785ZM84.4738 15.8518C88.5459 15.0707 91.7451 18.0649 92.3695 21.3325C93.1615 25.4683 90.1719 28.7111 86.8872 29.3369C78.1125 31.0065 75.2937 17.6114 84.4722 15.8518H84.4738ZM84.6617 14.2631C80.3675 14.7865 76.707 18.6396 77.2956 23.5922C77.8019 27.8507 81.7233 31.5112 86.6248 30.9242C90.8863 30.4148 94.5453 26.5011 93.9582 21.595C93.4504 17.3459 89.5367 13.6683 84.6617 14.2631ZM87.8765 38.6164C87.8889 37.8787 87.9681 37.5401 86.5471 37.5386C85.8855 37.5386 85.2224 37.5432 84.5592 37.5432C81.7653 37.5432 75.4351 37.8585 73.6584 36.9997C72.1519 36.2728 70.7806 34.6049 70.6827 32.3623C70.5181 28.5713 70.6765 21.2968 70.6765 17.1005C70.6765 13.6698 69.8829 7.65487 76.4741 7.64089L91.8818 7.64245C96.1372 7.64245 100.582 7.25884 100.577 14.2025V29.4581C100.577 32.2769 100.844 33.8796 99.2215 35.7262C97.4479 37.7467 96.44 37.3056 93.3976 37.5401C92.2514 37.6287 91.8803 39.0714 93.8588 39.073C95.1463 39.0745 96.2878 39.0823 97.4573 38.6956C102.75 36.9453 102.102 31.6619 102.102 28.0852C102.102 23.0875 102.273 17.7854 102.098 12.8265C102.012 10.4131 100.82 8.70007 99.5974 7.70457C97.7275 6.18103 96.4245 6.11735 93.5591 6.11891C88.4232 6.11891 83.2873 6.11891 78.1513 6.11891C75.5935 6.11891 73.5745 6.17326 71.9065 7.49957C70.6827 8.47333 69.3751 9.9922 69.1794 12.3746C68.9992 14.569 69.1499 24.5924 69.1499 27.6286C69.1499 29.7811 68.8983 32.9322 69.6438 34.7633C71.6953 39.8045 76.5579 39.0699 80.5927 39.0699L86.3918 39.073C87.2615 39.0776 87.3267 39.1864 87.8765 38.6179V38.6164Z" fill="#ABC2B3"/>
</g>
<g clip-path="url(#clip2_1083_628)" filter="url(#filter2_d_1083_628)">
<path d="M156.163 13.3101C155.937 12.4589 155.492 11.682 154.871 11.0572C154.25 10.4324 153.476 9.98168 152.627 9.75011C149.508 8.90845 137 8.90845 137 8.90845C137 8.90845 124.492 8.90845 121.372 9.75011C120.522 9.98209 119.749 10.433 119.128 11.0578C118.508 11.6825 118.063 12.4592 117.837 13.3101C117 16.4501 117 23.0001 117 23.0001C117 23.0001 117 29.5501 117.837 32.6901C118.063 33.5413 118.508 34.3182 119.129 34.943C119.75 35.5678 120.524 36.0185 121.373 36.2501C124.492 37.0918 137 37.0918 137 37.0918C137 37.0918 149.508 37.0918 152.628 36.2501C153.478 36.0187 154.252 35.568 154.873 34.9432C155.494 34.3184 155.939 33.5414 156.165 32.6901C157 29.5501 157 23.0001 157 23.0001C157 23.0001 157 16.4501 156.163 13.3101ZM132.908 28.9468V17.0534L143.363 23.0001L132.908 28.9468Z" fill="#ABC2B3"/>
</g>
<g clip-path="url(#clip3_1083_628)" filter="url(#filter3_d_1083_628)">
<path fill-rule="evenodd" clip-rule="evenodd" d="M188.515 19.1478C188.592 19.7222 188.438 20.7047 188.689 21.165C189.459 22.5793 190.335 20.1427 192.481 19.2371C194.651 18.3216 197.297 18.7173 198.936 20.407C201.137 22.6773 200.849 24.1648 200.849 27.1782C200.849 30.0353 200.849 32.8912 200.849 35.7905L196.682 35.8004C196.682 32.8738 196.676 29.9472 196.683 27.0219C196.69 24.4811 195.703 22.1563 192.789 22.1587C189.824 22.1612 188.846 24.4228 188.854 27.0219C188.863 29.9298 188.855 32.8391 188.855 35.7905L184.687 35.8004L184.745 19.1341L188.514 19.1478H188.515ZM174.683 3.16138C173.76 3.64025 174.48 4.93668 175.395 4.49379C176.237 4.08563 175.67 2.64901 174.683 3.16138ZM200.538 41.4762C199.615 41.955 200.336 43.2515 201.25 42.8085C202.091 42.4016 201.527 40.9626 200.538 41.4762ZM175.119 13.1606C174.554 9.74401 179.626 9.00834 180.132 12.2662C180.666 15.6965 175.639 16.2944 175.119 13.1606ZM176.517 8.78751C171.148 10.4239 173.698 18.1305 178.814 16.6206C183.879 15.1257 181.667 7.21815 176.517 8.78751ZM175.582 19.1404L179.703 19.1354L179.706 35.8054L175.539 35.747L175.582 19.1391V19.1404ZM174.345 37.2109C175.134 37.5087 180.434 37.5136 181.062 37.0918C181.521 36.6105 181.25 22.3064 181.265 19.7024C181.27 18.8252 181.542 17.7372 180.459 17.5896C179.76 17.4941 178.305 17.5796 177.526 17.5796C173.392 17.5796 173.983 16.019 173.983 25.7776C173.983 27.7501 173.983 29.7239 173.983 31.6965C173.983 32.8974 173.609 36.4195 174.345 37.2122V37.2109ZM169.823 41.1126C169.322 40.2765 169.582 17.8476 169.582 13.7846C169.582 12.2823 169.236 5.59296 169.9 4.75803C170.853 4.3598 172.339 5.0136 172.639 4.03849C173.024 2.79044 171.046 2.98645 170.381 3.05841C167.631 3.35739 168.029 5.45029 168.027 7.55683L168.024 34.9667C168.024 43.182 167.287 42.9127 173.942 42.9103L197.895 42.8731C198.883 42.5927 198.872 41.3297 197.168 41.3285C194.205 41.326 170.678 41.625 169.821 41.1139L169.823 41.1126ZM206.101 4.83495C206.602 5.67236 206.34 28.1 206.34 32.1629C206.34 33.6665 206.686 40.3522 206.021 41.1884C205.067 41.5878 203.581 40.9327 203.281 41.9079C202.896 43.1572 204.901 42.9562 205.565 42.9016C208.258 42.6771 207.893 40.4018 207.895 38.3907L207.896 10.9809C207.896 2.7619 208.632 3.03484 201.978 3.03732C200.769 3.03732 178.7 2.91822 178.074 3.10555C176.965 3.43679 177.141 4.62032 178.754 4.62157C181.718 4.62405 205.241 4.32134 206.098 4.83495H206.101ZM190.237 18.7161C189.695 17.7745 190.87 17.5747 187.495 17.5785C186.576 17.5796 184.229 17.4184 183.509 17.7261C182.795 18.4903 183.135 25.7701 183.135 27.3346C183.135 28.8319 182.923 36.3028 183.332 37.1092C184.056 37.5298 189.539 37.5261 190.226 37.0733C190.616 36.2668 190.416 30.6717 190.416 29.3592C190.416 27.3656 189.792 23.6996 192.79 23.7219C195.743 23.7442 195.128 27.3928 195.128 29.3592C195.128 30.7089 194.897 36.2644 195.325 37.1092C196.156 37.5918 199.148 37.3462 200.266 37.3598C203.012 37.3921 202.406 36.8983 202.41 34.3426C202.414 31.2089 202.632 27.1323 202.378 24.1089C202.158 21.4926 200.554 19.1813 198.22 18.0065C195.294 16.5314 192.885 17.138 190.238 18.7161H190.237Z" fill="#ABC2B3"/>
</g>
<g clip-path="url(#clip4_1083_628)" filter="url(#filter4_d_1083_628)">
<path fill-rule="evenodd" clip-rule="evenodd" d="M257.1 4.835C257.601 5.67287 257.34 28.1 257.34 32.1632C257.34 33.6667 257.687 40.3521 257.022 41.1888C256.068 41.588 254.582 40.9334 254.281 41.9083C253.896 43.1574 255.901 42.9567 256.566 42.9018C259.258 42.677 258.894 40.4025 258.895 38.3912L258.897 10.9808C258.897 2.76227 259.632 3.03425 252.979 3.03754C251.769 3.03754 229.7 2.918 229.074 3.10554C227.964 3.43673 228.142 4.62115 229.754 4.62224C232.718 4.62444 256.241 4.32285 257.099 4.835H257.1ZM226.915 11.1738C227.44 12.2672 228.525 13.4681 229.246 14.4584C229.929 15.3949 230.948 16.7219 231.643 17.664L236.433 24.0916C236.286 24.5643 231.387 29.9391 230.436 30.8626C229.973 31.3122 229.659 31.7805 229.267 32.1873C228.839 32.6315 227.201 34.282 226.985 34.7776C227.407 34.8237 229.034 34.8796 229.38 34.7766C229.827 34.645 237.659 25.8814 237.703 25.8354L242.843 32.6271C243.279 33.2226 243.962 34.1898 244.533 34.816L251.008 34.7766C250.692 33.976 247.078 29.4236 246.241 28.2996C245.449 27.2369 241.712 22.4521 241.452 21.7524C243.036 20.0153 244.614 18.1728 246.25 16.462C247.11 15.5627 250.677 11.7671 250.924 11.1826C247.986 11.0269 248.641 10.9852 247.251 12.4766C246.419 13.3683 245.737 14.0713 244.903 14.9606C243.957 15.9685 241.003 19.5908 240.17 20.081L235.361 13.7839C233.655 11.6673 234.026 11.1486 232.393 11.1464C230.577 11.1442 228.727 11.1267 226.914 11.1694L226.915 11.1738ZM229.471 12.4448L230.372 13.808C230.795 14.3706 230.979 14.6525 231.366 15.1438C232.018 15.9707 232.66 16.8316 233.372 17.8098C237.156 23.0016 241.694 28.6428 245.158 33.5526L248.42 33.5483C248.252 32.9013 236.924 17.9864 236.59 17.551C232.086 11.6849 233.857 12.356 229.469 12.446L229.471 12.4448ZM225.683 3.16256C224.761 3.64181 225.48 4.93809 226.395 4.49503C227.237 4.08707 226.67 2.64932 225.683 3.16256ZM251.539 41.4773C250.616 41.9566 251.337 43.2528 252.251 42.8097C253.093 42.4029 252.528 40.964 251.539 41.4773ZM220.823 41.1121C220.322 40.2753 220.583 17.8471 220.583 13.7839C220.583 12.2815 220.237 5.59171 220.9 4.75714C221.853 4.35904 223.339 5.01266 223.639 4.03771C224.024 2.78969 222.046 2.986 221.381 3.05838C218.631 3.35777 219.029 5.45024 219.026 7.55696L219.024 34.9663C219.024 43.1826 218.287 42.9128 224.943 42.9095L248.897 42.8723C249.884 42.5916 249.873 41.3292 248.17 41.327C245.206 41.3248 221.678 41.6243 220.823 41.1121Z" fill="#ABC2B3"/>
</g>
<g clip-path="url(#clip5_1083_628)" filter="url(#filter5_d_1083_628)">
<path fill-rule="evenodd" clip-rule="evenodd" d="M271.931 40.6422L273.999 33.245C274.526 31.4056 272.74 30.4706 271.94 26.2111C271.42 23.4492 271.564 20.4573 272.28 17.8268C273.319 14.0041 275.268 12.4703 275.036 11.2513C274.173 10.7011 273.886 10.9744 273.386 11.7673C270.529 16.3002 269.367 21.0651 270.433 26.6246C270.714 28.0846 271.136 29.3846 271.703 30.6522C272.711 32.9123 272.735 31.9181 271.999 34.5288C271.615 35.899 271.226 37.2798 270.842 38.6643C270.478 39.9715 269.581 42.2101 270.228 42.7082C270.777 43.1307 277.676 41.0233 279.177 40.6062C280.981 40.1045 280.384 40.2322 281.898 40.8615C294.017 45.9032 307 38.6643 309.239 26.2866C312.189 9.97468 294.797 -2.94069 279.605 5.84097C278.719 6.35341 277.814 6.68605 278.131 7.88894C279.102 8.26114 279.629 7.63362 280.44 7.14455C286.217 3.65274 293.648 3.77501 299.218 7.18951C304.132 10.203 309.23 16.7012 307.745 25.7328C306.567 32.889 301.164 38.5151 294.725 40.2753C286.569 42.5032 281.705 38.5222 280.386 38.6823C279.188 38.828 274.394 40.5361 272.197 40.8256C271.735 40.9101 272.066 40.9137 271.929 40.6458L271.931 40.6422ZM300.768 34.7176C302.108 34.6889 301.944 33.468 301.329 33.2522C300.511 32.9645 299.702 33.8672 300.768 34.7176ZM276.982 8.71424C275.624 8.30429 275.218 9.32558 275.926 9.92973C276.588 10.4943 277.381 9.81285 276.982 8.71424ZM294.784 25.9072C295.577 26.0421 296.214 26.4718 296.895 26.8044C297.21 26.9591 297.526 27.1101 297.845 27.2557C298.314 27.4715 298.488 27.4535 298.605 27.93C299.058 29.7658 297.392 30.8321 295.93 31.0604C289.951 31.9972 279.846 23.0681 281.125 17.4725C281.624 15.2897 282.631 14.8672 284.3 14.9661C285.359 18.4417 286.72 18.3932 285.267 19.9053C283.507 21.7375 285.057 23.1292 286.26 24.5011C287.322 25.713 288.68 26.7936 290.399 27.6909C293.335 29.2263 293.522 27.182 294.783 25.9072H294.784ZM292.19 26.6516C290.331 26.5113 286.878 23.3809 285.99 21.5343C286.512 20.7036 287.763 20.0563 287.43 18.51C287.238 17.611 286.4 16.0215 286.012 15.0973C284.703 11.9867 281.383 13.3622 280.22 15.4893C277.737 20.0312 281.88 25.4253 285.077 28.1835C286.742 29.6202 288.524 30.8104 290.967 31.7922C293.234 32.7038 296.654 33.2378 298.56 31.6412C299.425 30.9165 300.092 30.0193 300.175 28.5503C300.292 26.4736 299.591 26.4161 298.136 25.7076C292.983 23.1957 294.486 24.6395 292.19 26.6533V26.6516ZM274.554 38.2418C276.038 38.8118 279.927 36.6685 281.193 37.0299C282.518 37.4092 283.507 38.6122 287.295 39.193C290.76 39.7252 294.497 39.1121 297.544 37.4776C298.341 37.0497 300.074 36.3412 299.042 35.3793C298.337 34.9082 297.329 35.8306 296.581 36.2082C295.761 36.62 294.934 36.9598 294.02 37.2223C291.925 37.8246 289.556 37.9991 287.315 37.6197C285.143 37.2511 283.647 36.6038 281.97 35.6436C280.546 34.8291 278.864 36.0949 276.333 36.4922C276.561 35.4494 277.474 32.898 277.523 32.0942C277.557 31.5152 276.149 29.1778 275.779 28.2878C272.355 20.0617 277.352 9.71216 287.139 7.90693C296.901 6.10528 305.262 14.094 304.864 23.4043C304.792 25.0837 304.431 26.684 303.902 28.1062C302.985 30.5732 301.944 30.9382 302.413 32.1698C303.564 32.4988 303.737 31.9091 304.21 31.0622C304.612 30.3448 304.909 29.7694 305.233 28.9729C308.52 20.914 304.879 11.7745 297.374 7.93569C294.403 6.41634 290.733 5.7241 286.977 6.35521C275.461 8.28632 269.734 21.2916 275.313 30.9327C275.934 32.0043 275.975 31.9199 275.585 33.2863C275.252 34.4515 274.234 37.2223 274.551 38.2436L274.554 38.2418Z" fill="#ABC2B3"/>
</g>
<defs>
<filter id="filter0_d_1083_628" x="11" y="0" width="48" height="48" filterUnits="userSpaceOnUse" color-interpolation-filters="sRGB">
<feFlood flood-opacity="0" result="BackgroundImageFix"/>
<feColorMatrix in="SourceAlpha" type="matrix" values="0 0 0 0 0 0 0 0 0 0 0 0 0 0 0 0 0 0 127 0" result="hardAlpha"/>
<feOffset dy="1"/>
<feGaussianBlur stdDeviation="2"/>
<feColorMatrix type="matrix" values="0 0 0 0 0 0 0 0 0 0 0 0 0 0 0 0 0 0 0.15 0"/>
<feBlend mode="normal" in2="BackgroundImageFix" result="effect1_dropShadow_1083_628"/>
<feBlend mode="normal" in="SourceGraphic" in2="effect1_dropShadow_1083_628" result="shape"/>
</filter>
<filter id="filter1_d_1083_628" x="62" y="0" width="48" height="48" filterUnits="userSpaceOnUse" color-interpolation-filters="sRGB">
<feFlood flood-opacity="0" result="BackgroundImageFix"/>
<feColorMatrix in="SourceAlpha" type="matrix" values="0 0 0 0 0 0 0 0 0 0 0 0 0 0 0 0 0 0 127 0" result="hardAlpha"/>
<feOffset dy="1"/>
<feGaussianBlur stdDeviation="2"/>
<feColorMatrix type="matrix" values="0 0 0 0 0 0 0 0 0 0 0 0 0 0 0 0 0 0 0.15 0"/>
<feBlend mode="normal" in2="BackgroundImageFix" result="effect1_dropShadow_1083_628"/>
<feBlend mode="normal" in="SourceGraphic" in2="effect1_dropShadow_1083_628" result="shape"/>
</filter>
<filter id="filter2_d_1083_628" x="113" y="0" width="48" height="48" filterUnits="userSpaceOnUse" color-interpolation-filters="sRGB">
<feFlood flood-opacity="0" result="BackgroundImageFix"/>
<feColorMatrix in="SourceAlpha" type="matrix" values="0 0 0 0 0 0 0 0 0 0 0 0 0 0 0 0 0 0 127 0" result="hardAlpha"/>
<feOffset dy="1"/>
<feGaussianBlur stdDeviation="2"/>
<feColorMatrix type="matrix" values="0 0 0 0 0 0 0 0 0 0 0 0 0 0 0 0 0 0 0.15 0"/>
<feBlend mode="normal" in2="BackgroundImageFix" result="effect1_dropShadow_1083_628"/>
<feBlend mode="normal" in="SourceGraphic" in2="effect1_dropShadow_1083_628" result="shape"/>
</filter>
<filter id="filter3_d_1083_628" x="164" y="0" width="48" height="48" filterUnits="userSpaceOnUse" color-interpolation-filters="sRGB">
<feFlood flood-opacity="0" result="BackgroundImageFix"/>
<feColorMatrix in="SourceAlpha" type="matrix" values="0 0 0 0 0 0 0 0 0 0 0 0 0 0 0 0 0 0 127 0" result="hardAlpha"/>
<feOffset dy="1"/>
<feGaussianBlur stdDeviation="2"/>
<feColorMatrix type="matrix" values="0 0 0 0 0 0 0 0 0 0 0 0 0 0 0 0 0 0 0.15 0"/>
<feBlend mode="normal" in2="BackgroundImageFix" result="effect1_dropShadow_1083_628"/>
<feBlend mode="normal" in="SourceGraphic" in2="effect1_dropShadow_1083_628" result="shape"/>
</filter>
<filter id="filter4_d_1083_628" x="215" y="0" width="48" height="48" filterUnits="userSpaceOnUse" color-interpolation-filters="sRGB">
<feFlood flood-opacity="0" result="BackgroundImageFix"/>
<feColorMatrix in="SourceAlpha" type="matrix" values="0 0 0 0 0 0 0 0 0 0 0 0 0 0 0 0 0 0 127 0" result="hardAlpha"/>
<feOffset dy="1"/>
<feGaussianBlur stdDeviation="2"/>
<feColorMatrix type="matrix" values="0 0 0 0 0 0 0 0 0 0 0 0 0 0 0 0 0 0 0.15 0"/>
<feBlend mode="normal" in2="BackgroundImageFix" result="effect1_dropShadow_1083_628"/>
<feBlend mode="normal" in="SourceGraphic" in2="effect1_dropShadow_1083_628" result="shape"/>
</filter>
<filter id="filter5_d_1083_628" x="266" y="0" width="48" height="48" filterUnits="userSpaceOnUse" color-interpolation-filters="sRGB">
<feFlood flood-opacity="0" result="BackgroundImageFix"/>
<feColorMatrix in="SourceAlpha" type="matrix" values="0 0 0 0 0 0 0 0 0 0 0 0 0 0 0 0 0 0 127 0" result="hardAlpha"/>
<feOffset dy="1"/>
<feGaussianBlur stdDeviation="2"/>
<feColorMatrix type="matrix" values="0 0 0 0 0 0 0 0 0 0 0 0 0 0 0 0 0 0 0.15 0"/>
<feBlend mode="normal" in2="BackgroundImageFix" result="effect1_dropShadow_1083_628"/>
<feBlend mode="normal" in="SourceGraphic" in2="effect1_dropShadow_1083_628" result="shape"/>
</filter>
<clipPath id="clip0_1083_628">
<rect width="40" height="40" fill="white" transform="translate(15 3)"/>
</clipPath>
<clipPath id="clip1_1083_628">
<rect width="40" height="40" fill="white" transform="translate(66 3)"/>
</clipPath>
<clipPath id="clip2_1083_628">
<rect width="40" height="40" fill="white" transform="translate(117 3)"/>
</clipPath>
<clipPath id="clip3_1083_628">
<rect width="40" height="40" fill="white" transform="translate(168 3)"/>
</clipPath>
<clipPath id="clip4_1083_628">
<rect width="40" height="40" fill="white" transform="translate(219 3)"/>
</clipPath>
<clipPath id="clip5_1083_628">
<rect width="40" height="40" fill="white" transform="translate(270 3)"/>
</clipPath>
</defs>
</svg>
