<svg width="12" height="9" viewBox="0 0 12 9" fill="none" xmlns="http://www.w3.org/2000/svg">
<path fill-rule="evenodd" clip-rule="evenodd" d="M11.0226 0.940296C11.1604 1.07813 11.2378 1.26504 11.2378 1.45994C11.2378 1.65484 11.1604 1.84175 11.0226 1.97958L5.14264 7.85958C5.00481 7.99737 4.81789 8.07477 4.62299 8.07477C4.4281 8.07477 4.24118 7.99737 4.10335 7.85958L1.16335 4.91958C1.02947 4.78096 0.955384 4.5953 0.957059 4.40258C0.958734 4.20987 1.03603 4.02552 1.17231 3.88925C1.30858 3.75297 1.49293 3.67567 1.68564 3.674C1.87836 3.67232 2.06402 3.74641 2.20264 3.88029L4.62299 6.30064L9.98334 0.940296C10.1212 0.802504 10.3081 0.725098 10.503 0.725098C10.6979 0.725098 10.8848 0.802504 11.0226 0.940296Z" fill="#688071"/>
</svg>
