<svg width="18" height="15" viewBox="0 0 18 15" fill="none" xmlns="http://www.w3.org/2000/svg">
<path d="M0.953125 4L7.85688 7.7275C8.14445 7.91937 8.48242 8.02176 8.82812 8.02176C9.17383 8.02176 9.5118 7.91937 9.79937 7.7275L16.7031 4M2.70312 13.625H14.9531C15.4173 13.625 15.8624 13.4406 16.1906 13.1124C16.5188 12.7842 16.7031 12.3391 16.7031 11.875V3.125C16.7031 2.66087 16.5188 2.21575 16.1906 1.88756C15.8624 1.55937 15.4173 1.375 14.9531 1.375H2.70312C2.239 1.375 1.79388 1.55937 1.46569 1.88756C1.1375 2.21575 0.953125 2.66087 0.953125 3.125V11.875C0.953125 12.3391 1.1375 12.7842 1.46569 13.1124C1.79388 13.4406 2.239 13.625 2.70312 13.625Z" stroke="#ABC2B3" stroke-width="1.75" stroke-linecap="round" stroke-linejoin="round"/>
</svg>
