<svg width="16" height="15" viewBox="0 0 16 15" fill="none" xmlns="http://www.w3.org/2000/svg">
<path d="M8.07813 4.58333V7.5L10.2656 9.6875M14.6406 7.5C14.6406 8.3618 14.4709 9.21516 14.1411 10.0114C13.8113 10.8076 13.3279 11.531 12.7185 12.1404C12.1091 12.7498 11.3857 13.2332 10.5895 13.563C9.79329 13.8928 8.93992 14.0625 8.07813 14.0625C7.21633 14.0625 6.36296 13.8928 5.56677 13.563C4.77057 13.2332 4.04712 12.7498 3.43774 12.1404C2.82835 11.531 2.34496 10.8076 2.01517 10.0114C1.68537 9.21516 1.51562 8.3618 1.51563 7.5C1.51563 5.75952 2.20703 4.09032 3.43774 2.85961C4.66844 1.6289 6.33764 0.9375 8.07813 0.9375C9.81861 0.9375 11.4878 1.6289 12.7185 2.85961C13.9492 4.09032 14.6406 5.75952 14.6406 7.5Z" stroke="#ABC2B3" stroke-width="1.45833" stroke-linecap="round" stroke-linejoin="round"/>
</svg>
